# xmcd
#
# Track frame offsets:
#	150
#	13755
#	28055
#	41945
#	55930
#	70592
#	84667
#	99180
#	112515
#	126132
#	138845
#	152540
#	165022
#	177565
#	189060
#	202840
#	215045
#	230980
#	243372
#	256252
#
# Disc length: 3597 seconds
#
# Revision: 2
# Processed by: cddbd v1.5.2PL0 Copyright (c) Steve Scherf et al.
# Submitted via: CDex 1.70beta2
#
DISCID=000e0b14
DTITLE=Various Artist - An Anthology of Big Band Swing (1930-1955) - Disc 1
DYEAR=1900
DGENRE=Jazz
TTITLE0=Rockin' in Rhythm - Duke Ellington
TTITLE1=House of David Blues - Fletcher Henderson
TTITLE2=Saratoga Drag - Luis Russell
TTITLE3=Savage Rhythm - Mills Blue Rhythm Band
TTITLE4=Chant of the Weed - Don Redman
TTITLE5=St. Louis Blues, (The) - the Dorsey Brothers
TTITLE6=Rock and Rye - Earl Hines
TTITLE7=Down South Camp Meeting - Fletcher Henderson
TTITLE8=Avalon - Jimmie Lunceford
TTITLE9=In the Shade of the Old Apple Tree - Claude Hopkins
TTITLE10=Darktown Strutters' Ball - Tiny Bradshaw
TTITLE11=Polka Dot Rag - Noble Sissle
TTITLE12=Stompin' at the Savoy - Isham Jones
TTITLE13=Peg O' My Heart - Glenn Miller
TTITLE14=One O'clock Jump - Count Basie
TTITLE15=Casa Loma Stomp - Casa Loma Orchestra
TTITLE16=South Rampart Street Parade - Bob Crosby
TTITLE17=Liza (All the Clouds'll Roll Away) - Chick Webb
TTITLE18=Dunkin' A Doughnut - Andy Kirk
TTITLE19=You Rascal, You - Louis Armstrong
EXTD=
EXTT0=
EXTT1=
EXTT2=
EXTT3=
EXTT4=
EXTT5=
EXTT6=
EXTT7=
EXTT8=
EXTT9=
EXTT10=
EXTT11=
EXTT12=
EXTT13=
EXTT14=
EXTT15=
EXTT16=
EXTT17=
EXTT18=
EXTT19=
PLAYORDER=
